<svg id="Layer_1" data-name="Layer 1" xmlns="http://www.w3.org/2000/svg" viewBox="0 0 24 22"><title>agenda</title><path d="M13,15H11a1,1,0,0,0-1,1v2a1,1,0,0,0,1,1h2a1,1,0,0,0,1-1V16A1,1,0,0,0,13,15ZM24,3V21a2,2,0,0,1-2,2H2a2,2,0,0,1-2-2V3A2,2,0,0,1,2,1H22A2,2,0,0,1,24,3ZM20,7H4A2,2,0,0,0,2,9V19a2,2,0,0,0,2,2H20a2,2,0,0,0,2-2V9A2,2,0,0,0,20,7ZM7,9H5a1,1,0,0,0-1,1v2a1,1,0,0,0,1,1H7a1,1,0,0,0,1-1V10A1,1,0,0,0,7,9Zm6,0H11a1,1,0,0,0-1,1v2a1,1,0,0,0,1,1h2a1,1,0,0,0,1-1V10A1,1,0,0,0,13,9Zm6,0H17a1,1,0,0,0-1,1v2a1,1,0,0,0,1,1h2a1,1,0,0,0,1-1V10A1,1,0,0,0,19,9ZM7,15H5a1,1,0,0,0-1,1v2a1,1,0,0,0,1,1H7a1,1,0,0,0,1-1V16A1,1,0,0,0,7,15Zm12,0H17a1,1,0,0,0-1,1v2a1,1,0,0,0,1,1h2a1,1,0,0,0,1-1V16A1,1,0,0,0,19,15Z" transform="translate(0 -1)"/></svg>