<?xml version="1.0" encoding="utf-8"?>
<!-- Generator: Adobe Illustrator 24.0.2, SVG Export Plug-In . SVG Version: 6.00 Build 0)  -->
<svg version="1.1" id="Layer_1" xmlns="http://www.w3.org/2000/svg" xmlns:xlink="http://www.w3.org/1999/xlink" x="0px" y="0px"
	 viewBox="0 0 20 20" style="enable-background:new 0 0 20 20;" xml:space="preserve">
<style type="text/css">
	.st0{fill:#231F20;}
</style>
<g>
	<g>
		<path class="st0" d="M1,1.9c-1.6,2.3-1.5,6.8,1.4,10c2.7,2.9,6.6,6.2,6.7,6.2c0.1,0.1,2.1,1.9,5.1,1.9c0.3,0,0.6,0,0.9-0.1
			c3.3-0.4,4.4-2.5,4.9-3.7c0.2-0.6-0.1-1.4-0.8-1.7l-3.8-1.7c-0.2-0.1-0.4-0.1-0.6-0.1c-0.5,0-0.9,0.2-1.2,0.5l-1.2,1.2
			c-0.2,0.2-0.5,0.3-0.8,0.3c-0.1,0-0.2,0-0.3-0.1c-0.8-0.4-2.1-1.2-3.6-2.8C6.3,10.5,5.6,9.5,5.4,9c-0.2-0.3,0-0.8,0.3-1.1l1.1-1.1
			C7.1,6.4,7.3,5.6,7.1,5L5.9,1.2C5.8,0.6,5.1,0,4.4,0C3.4,0,2,0.4,1,1.9z"/>
	</g>
</g>
</svg>
