<svg id="Layer_1" data-name="Layer 1" xmlns="http://www.w3.org/2000/svg" viewBox="0 0 23.31 23.41"><title>criar_proposta</title><path d="M14.8,4.9a1,1,0,0,0-1.4,0L1.7,16.7a2.19,2.19,0,0,0-.3.5L.3,22.6a1.06,1.06,0,0,0,1.2,1.2l5.4-1.1a.55.55,0,0,0,.5-.3L19.1,10.7a1,1,0,0,0,0-1.4Zm.4,3L4.5,18.6a.48.48,0,0,1-.7,0l-.2-.2a.48.48,0,0,1,0-.7L14.3,7A.48.48,0,0,1,15,7l.2.2A.48.48,0,0,1,15.2,7.9Z" transform="translate(-0.29 -0.4)"/><path d="M23.3,5,19,.7a1,1,0,0,0-1.4,0L16.2,2.1a1,1,0,0,0,0,1.4l4.3,4.3a1,1,0,0,0,1.4,0l1.4-1.4A1,1,0,0,0,23.3,5Z" transform="translate(-0.29 -0.4)"/></svg>