<?xml version="1.0" encoding="utf-8"?>
<!-- Generator: Adobe Illustrator 24.0.2, SVG Export Plug-In . SVG Version: 6.00 Build 0)  -->
<svg version="1.1" id="Layer_1" xmlns="http://www.w3.org/2000/svg" xmlns:xlink="http://www.w3.org/1999/xlink" x="0px" y="0px"
	 viewBox="0 0 24 24" style="enable-background:new 0 0 24 24;" xml:space="preserve">
<g>
	<path d="M14.8,4.9c-0.4-0.4-1-0.4-1.4,0L1.7,16.7c-0.1,0.1-0.2,0.3-0.3,0.5l-1.1,5.4c-0.1,0.7,0.5,1.3,1.2,1.2l5.4-1.1
		c0.2,0,0.4-0.1,0.5-0.3l11.7-11.7c0.4-0.4,0.4-1,0-1.4L14.8,4.9z M15.2,7.9L4.5,18.6c-0.2,0.2-0.5,0.2-0.7,0l-0.2-0.2
		c-0.2-0.2-0.2-0.5,0-0.7L14.3,7c0.2-0.2,0.5-0.2,0.7,0l0.2,0.2C15.4,7.4,15.4,7.7,15.2,7.9z"/>
	<path d="M23.3,5L19,0.7c-0.4-0.4-1-0.4-1.4,0l-1.4,1.4c-0.4,0.4-0.4,1,0,1.4l4.3,4.3c0.4,0.4,1,0.4,1.4,0l1.4-1.4
		C23.7,6,23.7,5.4,23.3,5z"/>
</g>
</svg>
