<svg id="Layer_1" data-name="Layer 1" xmlns="http://www.w3.org/2000/svg" viewBox="0 0 17.5 20"><title>discord</title><path d="M8.33,8.42a1.11,1.11,0,0,0,0,2.22,1.07,1.07,0,0,0,1-1.11A1.06,1.06,0,0,0,8.33,8.42Zm3.65,0a1.11,1.11,0,1,0,1,1.11A1.07,1.07,0,0,0,12,8.42Z" transform="translate(-1.39 -0.03)"/><path d="M16.84,0H3.44a2.05,2.05,0,0,0-2,2.06V15.61a2.05,2.05,0,0,0,2.05,2.06H14.78l-.53-1.85L15.53,17l1.21,1.12L18.89,20V2.09A2.05,2.05,0,0,0,16.84,0ZM13,13.09s-.36-.43-.66-.81a3.16,3.16,0,0,0,1.81-1.19,5.72,5.72,0,0,1-1.15.59,6.58,6.58,0,0,1-1.45.43,7,7,0,0,1-2.59,0,8.39,8.39,0,0,1-1.47-.43,5.86,5.86,0,0,1-.73-.34l-.09-.05,0,0-.28-.17a3.11,3.11,0,0,0,1.75,1.18l-.67.83a3.63,3.63,0,0,1-3-1.52A13.39,13.39,0,0,1,5.8,5.74a5,5,0,0,1,2.81-1l.1.12A6.75,6.75,0,0,0,6.08,6.12s.22-.12.59-.29A7.51,7.51,0,0,1,8.94,5.2l.17,0a8.46,8.46,0,0,1,2,0,8.15,8.15,0,0,1,3,1,6.66,6.66,0,0,0-2.49-1.27l.14-.16a5,5,0,0,1,2.81,1A13.39,13.39,0,0,1,16,11.57,3.66,3.66,0,0,1,13,13.09Z" transform="translate(-1.39 -0.03)"/></svg>