<svg id="Layer_1" data-name="Layer 1" xmlns="http://www.w3.org/2000/svg" viewBox="0 0 20 20"><title>facebook</title><path id="iconfinder_icon-02_2515845" data-name="iconfinder icon-02 2515845" d="M20,4.68a6.36,6.36,0,0,0-.1-1.07,4.15,4.15,0,0,0-1.24-2.36,4.12,4.12,0,0,0-1.81-1A7.81,7.81,0,0,0,14.9,0H5.1c-.37,0-.73,0-1.1,0A5.32,5.32,0,0,0,2.82.33,4.24,4.24,0,0,0,.22,3.17,7.18,7.18,0,0,0,0,5.07l0,9.84H0a10.05,10.05,0,0,0,.09,1.34A4.84,4.84,0,0,0,.5,17.59a4.36,4.36,0,0,0,1.2,1.46,3.68,3.68,0,0,0,1.2.65,6.33,6.33,0,0,0,2,.29c.42,0,.84,0,1.26,0h4.52V13.32H8.41V10.64h2.25V8.71a3.25,3.25,0,0,1,3-3.45H16V7.69H14.3a1.11,1.11,0,0,0-.86.84v2.06h2.48l-.28,2.57H13.4V20l1.89,0a6.78,6.78,0,0,0,1.2-.13,4.07,4.07,0,0,0,2-1,4.18,4.18,0,0,0,1.33-2.22A7.87,7.87,0,0,0,20,14.91V14.8C20,14.75,20,4.81,20,4.68Z" transform="translate(0 0)"/></svg>