<svg id="Layer_1" data-name="Layer 1" xmlns="http://www.w3.org/2000/svg" viewBox="0 0 20.51 20"><defs><style>.cls-1{fill:#202020;fill-rule:evenodd;}</style></defs><title>github</title><path id="Octicons-mark-github" class="cls-1" d="M10.25,0A10.25,10.25,0,0,0,7,20c.51.09.7-.22.7-.49s0-1,0-1.91c-2.58.48-3.25-.63-3.45-1.2a3.79,3.79,0,0,0-1-1.45c-.36-.19-.87-.67,0-.68A2.06,2.06,0,0,1,4.77,15.3a2.19,2.19,0,0,0,3,.85h0a2.2,2.2,0,0,1,.66-1.38c-2.28-.25-4.67-1.14-4.67-5.06A4,4,0,0,1,4.79,7a3.71,3.71,0,0,1,.1-2.72s.86-.27,2.82,1a9.71,9.71,0,0,1,5.13,0c2-1.33,2.82-1,2.82-1A3.71,3.71,0,0,1,15.76,7a3.94,3.94,0,0,1,1,2.75c0,3.94-2.4,4.81-4.68,5.07a2.39,2.39,0,0,1,.69,1.9c0,1.37,0,2.47,0,2.82s.19.59.7.48A10.26,10.26,0,0,0,10.25,0Z" transform="translate(0 0)"/></svg>