<svg id="Layer_1" data-name="Layer 1" xmlns="http://www.w3.org/2000/svg" viewBox="0 0 100 100"><defs><style>.cls-1{fill:#231f20;}</style></defs><title>pdf</title><path class="cls-1" d="M25.9,41.6H23.2v7.7h2.2a12.31,12.31,0,0,0,2-.2,3.82,3.82,0,0,0,1.6-.6,4.26,4.26,0,0,0,1.1-1.2,3.58,3.58,0,0,0,.4-1.9,3.24,3.24,0,0,0-1.3-2.9A5.6,5.6,0,0,0,25.9,41.6Z"/><path class="cls-1" d="M48.2,41.6H45.6V58.3h1.9a12.42,12.42,0,0,0,3.3-.4,8.18,8.18,0,0,0,2.8-1.4,7.72,7.72,0,0,0,1.9-2.7,10.75,10.75,0,0,0,.7-4.3c0-2.5-.7-4.5-2.2-5.8A7.94,7.94,0,0,0,48.2,41.6Z"/><path class="cls-1" d="M90,0H10A10,10,0,0,0,0,10V90a10,10,0,0,0,10,10H90a10,10,0,0,0,10-10V10A10,10,0,0,0,90,0ZM35.4,48.8a7.84,7.84,0,0,1-2.2,2.6A8.59,8.59,0,0,1,30,52.9a16,16,0,0,1-3.9.5H23.2v9.2H17.7V37.4h8.8a16.2,16.2,0,0,1,4,.5,8.45,8.45,0,0,1,3,1.5,6.34,6.34,0,0,1,1.9,2.4,8.05,8.05,0,0,1,.7,3.3A7,7,0,0,1,35.4,48.8Zm25.4,6.6a12.44,12.44,0,0,1-3,4.1,12.21,12.21,0,0,1-4.5,2.4,19.22,19.22,0,0,1-5.5.8H40.1V37.4h8.8a17.85,17.85,0,0,1,5.3.8,10.94,10.94,0,0,1,4.1,2.3A11.87,11.87,0,0,1,61,44.3a14.35,14.35,0,0,1,.9,5.3A12,12,0,0,1,60.8,55.4ZM82.3,41.6H71.8v6.7h9.6v4.2H71.8V62.6H66.3V37.4h16Z"/></svg>